<svg id="visual" viewBox="0 0 960 540" width="960" height="540" xmlns="http://www.w3.org/2000/svg" xmlns:xlink="http://www.w3.org/1999/xlink" version="1.1"><rect x="0" y="0" width="960" height="540" fill="#f9c98a"></rect><path d="M0 263L26.7 253.8C53.3 244.7 106.7 226.3 160 238.2C213.3 250 266.7 292 320 290.3C373.3 288.7 426.7 243.3 480 225.5C533.3 207.7 586.7 217.3 640 235.5C693.3 253.7 746.7 280.3 800 289.5C853.3 298.7 906.7 290.3 933.3 286.2L960 282L960 541L933.3 541C906.7 541 853.3 541 800 541C746.7 541 693.3 541 640 541C586.7 541 533.3 541 480 541C426.7 541 373.3 541 320 541C266.7 541 213.3 541 160 541C106.7 541 53.3 541 26.7 541L0 541Z" fill="#FF9000" stroke-linecap="round" stroke-linejoin="miter"></path></svg>